HIERARCHY
ROOT hip
{
  OFFSET 0 90.174 2.4664
  CHANNELS 6 Xposition Yposition Zposition Zrotation Xrotation Yrotation
  JOINT abdomen
  {
    OFFSET 0 -1.186 -1.5018
    CHANNELS 6 Xposition Yposition Zposition Zrotation Xrotation Yrotation
    JOINT abdomen2
    {
      OFFSET 0 9.964 0.2134
      CHANNELS 6 Xposition Yposition Zposition Zrotation Xrotation Yrotation
      JOINT chest
      {
        OFFSET 0 13.134 -3.2573
        CHANNELS 6 Xposition Yposition Zposition Zrotation Xrotation Yrotation
        JOINT neck
        {
          OFFSET 0 20.686 -1.6905
          CHANNELS 6 Xposition Yposition Zposition Zrotation Xrotation Yrotation
          JOINT head
          {
            OFFSET 0 7.238 -0.1237
            CHANNELS 6 Xposition Yposition Zposition Zrotation Xrotation Yrotation
            End Site
            {
              OFFSET 0 0 0
            }
          }
        }
        JOINT lCollar
        {
          OFFSET 1.7069 20.075 5.0056
          CHANNELS 6 Xposition Yposition Zposition Zrotation Xrotation Yrotation
          JOINT lShldr
          {
            OFFSET 13.6458 -0.047 -4.849
            CHANNELS 6 Xposition Yposition Zposition Zrotation Xrotation Yrotation
            JOINT lForeArm
            {
              OFFSET 28.3255 -0.9759 2.2888
              CHANNELS 6 Xposition Yposition Zposition Zrotation Xrotation Yrotation
              JOINT lHand
              {
                OFFSET 22.1583 -0.53 10.8316
                CHANNELS 6 Xposition Yposition Zposition Zrotation Xrotation Yrotation
                JOINT lThumb1
                {
                  OFFSET 0.786 0.112 2.5817
                  CHANNELS 6 Xposition Yposition Zposition Zrotation Xrotation Yrotation
                  JOINT lThumb2
                  {
                    OFFSET 0.3601 -0.878 4.2331
                    CHANNELS 6 Xposition Yposition Zposition Zrotation Xrotation Yrotation
                    JOINT lThumb2_End
                    {
                      OFFSET 1.8127 -1.216 2.2227
                      CHANNELS 6 Xposition Yposition Zposition Zrotation Xrotation Yrotation
                      End Site
                      {
                        OFFSET 0.0181 -0.0122 0.0222
                      }
                    }
                  }
                }
                JOINT lCarpal1
                {
                  OFFSET 0.9571 1.114 1.7695
                  CHANNELS 6 Xposition Yposition Zposition Zrotation Xrotation Yrotation
                  JOINT lIndex1
                  {
                    OFFSET 4.1246 0.487 4.1451
                    CHANNELS 6 Xposition Yposition Zposition Zrotation Xrotation Yrotation
                    JOINT lIndex2
                    {
                      OFFSET 3.4052 -1.454 2.7682
                      CHANNELS 6 Xposition Yposition Zposition Zrotation Xrotation Yrotation
                      JOINT lIndex2_End
                      {
                        OFFSET 1.4531 -1.795 1.2713
                        CHANNELS 6 Xposition Yposition Zposition Zrotation Xrotation Yrotation
                        End Site
                        {
                          OFFSET 0.0145 -0.0179 0.0127
                        }
                      }
                    }
                  }
                  JOINT lMid1
                  {
                    OFFSET 5.6954 0.21 2.1184
                    CHANNELS 6 Xposition Yposition Zposition Zrotation Xrotation Yrotation
                    JOINT lMid2
                    {
                      OFFSET 3.9766 -1.54 2.3863
                      CHANNELS 6 Xposition Yposition Zposition Zrotation Xrotation Yrotation
                      JOINT lMid2_End
                      {
                        OFFSET 1.4042 -1.926 1.125
                        CHANNELS 6 Xposition Yposition Zposition Zrotation Xrotation Yrotation
                        End Site
                        {
                          OFFSET 0.014 -0.0193 0.0113
                        }
                      }
                    }
                  }
                }
                JOINT lCarpal2
                {
                  OFFSET 2.0956 0.66 -0.3894
                  CHANNELS 6 Xposition Yposition Zposition Zrotation Xrotation Yrotation
                  JOINT lRing1
                  {
                    OFFSET 5.0395 -0.09 2.4971
                    CHANNELS 6 Xposition Yposition Zposition Zrotation Xrotation Yrotation
                    JOINT lRing2
                    {
                      OFFSET 3.7921 -1.552 1.4806
                      CHANNELS 6 Xposition Yposition Zposition Zrotation Xrotation Yrotation
                      JOINT lRing2_End
                      {
                        OFFSET 1.4655 -1.808 0.9609
                        CHANNELS 6 Xposition Yposition Zposition Zrotation Xrotation Yrotation
                        End Site
                        {
                          OFFSET 0.0147 -0.0181 0.0096
                        }
                      }
                    }
                  }
                  JOINT lPinky1
                  {
                    OFFSET 4.9141 -1.269 0.3591
                    CHANNELS 6 Xposition Yposition Zposition Zrotation Xrotation Yrotation
                    JOINT lPinky2
                    {
                      OFFSET 3.1477 -1.685 0.8462
                      CHANNELS 6 Xposition Yposition Zposition Zrotation Xrotation Yrotation
                      JOINT lPinky2_End
                      {
                        OFFSET 0.8055 -1.585 0.7955
                        CHANNELS 6 Xposition Yposition Zposition Zrotation Xrotation Yrotation
                        End Site
                        {
                          OFFSET 0.0081 -0.0158 0.008
                        }
                      }
                    }
                  }
                }
              }
            }
          }
        }
        JOINT rCollar
        {
          OFFSET -1.7069 20.075 5.0056
          CHANNELS 6 Xposition Yposition Zposition Zrotation Xrotation Yrotation
          JOINT rShldr
          {
            OFFSET -13.6458 -0.047 -4.849
            CHANNELS 6 Xposition Yposition Zposition Zrotation Xrotation Yrotation
            JOINT rForeArm
            {
              OFFSET -28.3255 -0.9759 2.2888
              CHANNELS 6 Xposition Yposition Zposition Zrotation Xrotation Yrotation
              JOINT rHand
              {
                OFFSET -22.1583 -0.53 10.8316
                CHANNELS 6 Xposition Yposition Zposition Zrotation Xrotation Yrotation
                JOINT rThumb1
                {
                  OFFSET -0.786 0.112 2.5817
                  CHANNELS 6 Xposition Yposition Zposition Zrotation Xrotation Yrotation
                  JOINT rThumb2
                  {
                    OFFSET -0.3601 -0.878 4.2331
                    CHANNELS 6 Xposition Yposition Zposition Zrotation Xrotation Yrotation
                    JOINT rThumb2_End
                    {
                      OFFSET -1.8127 -1.216 2.2227
                      CHANNELS 6 Xposition Yposition Zposition Zrotation Xrotation Yrotation
                      End Site
                      {
                        OFFSET -0.0181 -0.0122 0.0222
                      }
                    }
                  }
                }
                JOINT rCarpal1
                {
                  OFFSET -0.9571 1.114 1.7695
                  CHANNELS 6 Xposition Yposition Zposition Zrotation Xrotation Yrotation
                  JOINT rIndex1
                  {
                    OFFSET -4.1246 0.487 4.1451
                    CHANNELS 6 Xposition Yposition Zposition Zrotation Xrotation Yrotation
                    JOINT rIndex2
                    {
                      OFFSET -3.4052 -1.454 2.7682
                      CHANNELS 6 Xposition Yposition Zposition Zrotation Xrotation Yrotation
                      JOINT rIndex2_End
                      {
                        OFFSET -1.4531 -1.795 1.2713
                        CHANNELS 6 Xposition Yposition Zposition Zrotation Xrotation Yrotation
                        End Site
                        {
                          OFFSET -0.0145 -0.018 0.0127
                        }
                      }
                    }
                  }
                  JOINT rMid1
                  {
                    OFFSET -5.6954 0.21 2.1184
                    CHANNELS 6 Xposition Yposition Zposition Zrotation Xrotation Yrotation
                    JOINT rMid2
                    {
                      OFFSET -3.9766 -1.54 2.3863
                      CHANNELS 6 Xposition Yposition Zposition Zrotation Xrotation Yrotation
                      JOINT rMid2_End
                      {
                        OFFSET -1.4042 -1.926 1.125
                        CHANNELS 6 Xposition Yposition Zposition Zrotation Xrotation Yrotation
                        End Site
                        {
                          OFFSET -0.014 -0.0193 0.0113
                        }
                      }
                    }
                  }
                }
                JOINT rCarpal2
                {
                  OFFSET -2.0956 0.66 -0.3894
                  CHANNELS 6 Xposition Yposition Zposition Zrotation Xrotation Yrotation
                  JOINT rRing1
                  {
                    OFFSET -5.0395 -0.09 2.4971
                    CHANNELS 6 Xposition Yposition Zposition Zrotation Xrotation Yrotation
                    JOINT rRing2
                    {
                      OFFSET -3.7921 -1.552 1.4806
                      CHANNELS 6 Xposition Yposition Zposition Zrotation Xrotation Yrotation
                      JOINT rRing2_End
                      {
                        OFFSET -1.4655 -1.808 0.9609
                        CHANNELS 6 Xposition Yposition Zposition Zrotation Xrotation Yrotation
                        End Site
                        {
                          OFFSET -0.0147 -0.0181 0.0096
                        }
                      }
                    }
                  }
                  JOINT rPinky1
                  {
                    OFFSET -4.9141 -1.269 0.3592
                    CHANNELS 6 Xposition Yposition Zposition Zrotation Xrotation Yrotation
                    JOINT rPinky2
                    {
                      OFFSET -3.1477 -1.685 0.8462
                      CHANNELS 6 Xposition Yposition Zposition Zrotation Xrotation Yrotation
                      JOINT rPinky2_End
                      {
                        OFFSET -0.8055 -1.585 0.7955
                        CHANNELS 6 Xposition Yposition Zposition Zrotation Xrotation Yrotation
                        End Site
                        {
                          OFFSET -0.0081 -0.0158 0.008
                        }
                      }
                    }
                  }
                }
              }
            }
          }
        }
      }
    }
  }
  JOINT lThigh
  {
    OFFSET 8.367 -8.2066 0.5982
    CHANNELS 6 Xposition Yposition Zposition Zrotation Xrotation Yrotation
    JOINT lShin
    {
      OFFSET 2.1923 -43.463 -0.4932
      CHANNELS 6 Xposition Yposition Zposition Zrotation Xrotation Yrotation
      JOINT lFoot
      {
        OFFSET 0.7333 -45.8593 -2.6451
        CHANNELS 6 Xposition Yposition Zposition Zrotation Xrotation Yrotation
        End Site
        {
          OFFSET 2.6618 -4.2699 12.3931
        }
      }
    }
  }
  JOINT rThigh
  {
    OFFSET -8.367 -8.2066 0.5982
    CHANNELS 6 Xposition Yposition Zposition Zrotation Xrotation Yrotation
    JOINT rShin
    {
      OFFSET -2.1923 -43.463 -0.4931
      CHANNELS 6 Xposition Yposition Zposition Zrotation Xrotation Yrotation
      JOINT rFoot
      {
        OFFSET -0.7333 -45.8593 -2.6451
        CHANNELS 6 Xposition Yposition Zposition Zrotation Xrotation Yrotation
        End Site
        {
          OFFSET -2.6618 -4.2699 12.3931
        }
      }
    }
  }
}
MOTION
Frames:	4
Frame Time:	0.0333333
42.3334 88.116 29.9021 0 18.9975 -0 0 -1.186 -1.5018 -0.234466 -0.637462 -0.201412 -7.10543e-015 9.964 0.2134 -0.471215 -1.27413 -0.405469 0 13.134 -3.2573 -0.471215 -1.27412 -0.405469 0 20.686 -1.6905 -3.78067e-005 -26.0016 -2.57213e-005 -7.10543e-015 7.238 -0.1237 -1.59019e-007 17.9983 -2.23608e-008 1.7069 20.075 5.0056 10.3696 18.0466 3.43706 13.6458 -0.047 -4.849 -75.1695 -1.95807 7.12062 28.3255 -0.9759 2.2888 -34.8848 10.1848 22.0244 22.1583 -0.53 10.8316 9.90693 2.3254 -26.4321 0.786 0.112 2.5817 7.95139e-016 2.38542e-015 -0 0.3601 -0.878 4.2331 5.96354e-016 3.97569e-016 6.36111e-015 1.8127 -1.216 2.2227 3.97569e-016 1.59028e-015 6.36111e-015 0.9571 1.114 1.7695 7.95139e-016 1.59028e-015 -0 4.1246 0.487 4.1451 1.98785e-016 3.97569e-016 6.36111e-015 3.4052 -1.454 2.7682 1.78906e-015 1.59028e-015 -3.18055e-015 1.4531 -1.795 1.2713 9.93923e-016 3.97569e-016 -3.18055e-015 5.6954 0.21 2.1184 1.98785e-016 3.97569e-016 6.36111e-015 3.9766 -1.54 2.3863 1.78906e-015 1.59028e-015 -3.18055e-015 1.4042 -1.926 1.125 9.93923e-016 3.97569e-016 -3.18055e-015 2.0956 0.66 -0.3894 7.95139e-016 1.59028e-015 -0 5.0395 -0.09 2.4971 1.98785e-016 3.97569e-016 6.36111e-015 3.7921 -1.552 1.4806 1.78906e-015 1.59028e-015 -3.18055e-015 1.4655 -1.808 0.9609 9.93923e-016 3.97569e-016 -3.18055e-015 4.9141 -1.269 0.3591 1.98785e-016 3.97569e-016 6.36111e-015 3.1477 -1.685 0.8462 1.78906e-015 1.59028e-015 -3.18055e-015 0.8055 -1.585 0.7955 9.93923e-016 3.97569e-016 -3.18055e-015 -1.7069 20.075 5.0056 -1.90771 19.1715 -7.76042 -13.6458 -0.047 -4.849 74.5718 -2.00001 -7.63654 -28.3255 -0.9759 2.2888 18.5816 6.18654 -21.4959 -22.1583 -0.53 10.8316 -1.63095 5.62075 22.7928 -0.786 0.112 2.5817 -3.97569e-016 3.97569e-016 -0 -0.3601 -0.878 4.2331 -0 0 3.18055e-015 -1.8127 -1.216 2.2227 -3.97569e-016 0 3.18055e-015 -0.9571 1.114 1.7695 0 7.95139e-016 -0 -4.1246 0.487 4.1451 7.95139e-016 3.97569e-016 1.27222e-014 -3.4052 -1.454 2.7682 -0 0 6.36111e-015 -1.4531 -1.795 1.2713 -3.97569e-016 0 6.36111e-015 -5.6954 0.21 2.1184 7.95139e-016 3.97569e-016 1.27222e-014 -3.9766 -1.54 2.3863 -0 0 6.36111e-015 -1.4042 -1.926 1.125 -3.97569e-016 0 6.36111e-015 -2.0956 0.66 -0.3894 0 7.95139e-016 -0 -5.0395 -0.09 2.4971 7.95139e-016 3.97569e-016 1.27222e-014 -3.7921 -1.552 1.4806 -0 0 6.36111e-015 -1.4655 -1.808 0.9609 -3.97569e-016 0 6.36111e-015 -4.9141 -1.269 0.3592 7.95139e-016 3.97569e-016 1.27222e-014 -3.1477 -1.685 0.8462 -0 0 6.36111e-015 -0.8055 -1.585 0.7955 -3.97569e-016 0 6.36111e-015 8.367 -8.2066 0.5982 12.9926 -38.4863 72.2064 2.1923 -43.463 -0.4932 8.03846 17.6779 -2.06029 0.7333 -45.8593 -2.6451 2.07281 8.52667 -32.6267 -8.367 -8.2066 0.5982 -1.4291 -41.1194 -24.7461 -2.1923 -43.463 -0.4931 -9.65762 16.5468 1.66212 -0.7333 -45.8593 -2.6451 10.0413 5.23219 5.22568 
42.3331 88.1945 29.9099 0 18.9975 -0 0 -1.186 -1.5018 -0.234976 -0.505245 -0.201008 0 9.964 0.2134 -0.47175 -1.00966 -0.40411 1.42109e-014 13.134 -3.2573 -0.471749 -1.00966 -0.40411 0 20.686 -1.6905 0.000155761 -26.0013 0.000104148 -7.10543e-015 7.238 -0.1237 3.62063e-007 17.9983 -2.74325e-009 1.7069 20.075 5.0056 10.1554 17.637 3.5097 13.6458 -0.047 -4.849 -75.1695 -1.95806 7.12061 28.3255 -0.9759 2.2888 -34.5387 10.0329 22.0126 22.1583 -0.53 10.8316 9.65057 2.30665 -26.3373 0.786 0.112 2.5817 3.79827e-007 1.21274e-006 -1.10216e-006 0.3601 -0.878 4.2331 -3.79827e-007 -1.21274e-006 1.10216e-006 1.8127 -1.216 2.2227 3.79827e-007 1.21274e-006 -1.10216e-006 0.9571 1.114 1.7695 -1.98785e-016 3.97569e-016 -3.18055e-015 4.1246 0.487 4.1451 3.79827e-007 1.21274e-006 -1.10216e-006 3.4052 -1.454 2.7682 -3.79827e-007 -1.21274e-006 1.10216e-006 1.4531 -1.795 1.2713 3.79827e-007 1.21274e-006 -1.10216e-006 5.6954 0.21 2.1184 3.79827e-007 1.21274e-006 -1.10216e-006 3.9766 -1.54 2.3863 -3.79827e-007 -1.21274e-006 1.10216e-006 1.4042 -1.926 1.125 3.79827e-007 1.21274e-006 -1.10216e-006 2.0956 0.66 -0.3894 -1.98785e-016 3.97569e-016 -3.18055e-015 5.0395 -0.09 2.4971 3.79827e-007 1.21274e-006 -1.10216e-006 3.7921 -1.552 1.4806 -3.79827e-007 -1.21274e-006 1.10216e-006 1.4655 -1.808 0.9609 3.79827e-007 1.21274e-006 -1.10216e-006 4.9141 -1.269 0.3591 3.79827e-007 1.21274e-006 -1.10216e-006 3.1477 -1.685 0.8462 -3.79827e-007 -1.21274e-006 1.10216e-006 0.8055 -1.585 0.7955 3.79827e-007 1.21274e-006 -1.10216e-006 -1.7069 20.075 5.0056 -1.60101 18.7341 -7.82751 -13.6458 -0.047 -4.849 74.5797 -2.00147 -7.62694 -28.3255 -0.9759 2.2888 18.1712 6.06958 -21.4892 -22.1583 -0.53 10.8316 -1.35379 5.62733 22.6108 -0.786 0.112 2.5817 3.25323e-007 -1.18916e-006 -3.38195e-006 -0.3601 -0.878 4.2331 -4.44225e-007 1.11495e-006 -1.15205e-006 -1.8127 -1.216 2.2227 -4.44225e-007 1.11495e-006 -1.15205e-006 -0.9571 1.114 1.7695 -6.62086e-032 3.97569e-016 9.54166e-015 -4.1246 0.487 4.1451 3.25323e-007 -1.18916e-006 -3.38195e-006 -3.4052 -1.454 2.7682 -4.44225e-007 1.11495e-006 -1.15205e-006 -1.4531 -1.795 1.2713 -4.44225e-007 1.11495e-006 -1.15205e-006 -5.6954 0.21 2.1184 3.25323e-007 -1.18916e-006 -3.38195e-006 -3.9766 -1.54 2.3863 -4.44225e-007 1.11495e-006 -1.15205e-006 -1.4042 -1.926 1.125 -4.44225e-007 1.11495e-006 -1.15205e-006 -2.0956 0.66 -0.3894 -6.62086e-032 3.97569e-016 9.54166e-015 -5.0395 -0.09 2.4971 3.25323e-007 -1.18916e-006 -3.38195e-006 -3.7921 -1.552 1.4806 -4.44225e-007 1.11495e-006 -1.15205e-006 -1.4655 -1.808 0.9609 -4.44225e-007 1.11495e-006 -1.15205e-006 -4.9141 -1.269 0.3592 3.25323e-007 -1.18916e-006 -3.38195e-006 -3.1477 -1.685 0.8462 -4.44225e-007 1.11495e-006 -1.15205e-006 -0.8055 -1.585 0.7955 -4.44225e-007 1.11495e-006 -1.15205e-006 8.367 -8.2066 0.5982 12.7751 -38.1747 72.2095 2.1923 -43.463 -0.4932 7.7449 17.221 -1.96556 0.7333 -45.8593 -2.6451 2.23845 8.73478 -32.8104 -8.367 -8.2066 0.5982 -1.03606 -40.7137 -23.3172 -2.1923 -43.463 -0.4931 -9.47025 16.0159 1.58745 -0.7333 -45.8593 -2.6451 10.219 5.32113 3.99648 
42.3325 88.2729 29.9177 0 18.9975 -0 0 -1.186 -1.5018 -0.235443 -0.372944 -0.200566 0 9.964 0.2134 -0.472205 -0.745052 -0.402675 7.10543e-015 13.134 -3.2573 -0.472205 -0.745054 -0.402675 7.10543e-015 20.686 -1.6905 8.59282e-005 -26.0014 5.81712e-005 -7.10543e-015 7.238 -0.1237 4.87314e-008 17.9983 1.27104e-007 1.7069 20.075 5.0056 9.94208 17.2267 3.58048 13.6458 -0.047 -4.849 -75.1695 -1.95807 7.12062 28.3255 -0.9759 2.2888 -34.192 9.88347 22.001 22.1583 -0.53 10.8316 9.39427 2.28746 -26.2425 0.786 0.112 2.5817 -3.82063e-007 -1.21168e-006 1.10081e-006 0.3601 -0.878 4.2331 -3.82063e-007 -1.21168e-006 1.10081e-006 1.8127 -1.216 2.2227 -3.82063e-007 -1.21168e-006 1.10081e-006 0.9571 1.114 1.7695 3.97569e-016 0 -3.18055e-015 4.1246 0.487 4.1451 -3.82063e-007 -1.21168e-006 1.10081e-006 3.4052 -1.454 2.7682 -3.82063e-007 -1.21168e-006 1.10081e-006 1.4531 -1.795 1.2713 -3.82063e-007 -1.21168e-006 1.10081e-006 5.6954 0.21 2.1184 -3.82063e-007 -1.21168e-006 1.10081e-006 3.9766 -1.54 2.3863 -3.82063e-007 -1.21168e-006 1.10081e-006 1.4042 -1.926 1.125 -3.82063e-007 -1.21168e-006 1.10081e-006 2.0956 0.66 -0.3894 3.97569e-016 0 -3.18055e-015 5.0395 -0.09 2.4971 -3.82063e-007 -1.21168e-006 1.10081e-006 3.7921 -1.552 1.4806 -3.82063e-007 -1.21168e-006 1.10081e-006 1.4655 -1.808 0.9609 -3.82063e-007 -1.21168e-006 1.10081e-006 4.9141 -1.269 0.3591 -3.82063e-007 -1.21168e-006 1.10081e-006 3.1477 -1.685 0.8462 -3.82063e-007 -1.21168e-006 1.10081e-006 0.8055 -1.585 0.7955 -3.82063e-007 -1.21168e-006 1.10081e-006 -1.7069 20.075 5.0056 -1.29579 18.2961 -7.89215 -13.6458 -0.047 -4.849 74.5875 -2.00294 -7.61733 -28.3255 -0.9759 2.2888 17.7602 5.95549 -21.4825 -22.1583 -0.53 10.8316 -1.07655 5.63307 22.4287 -0.786 0.112 2.5817 0 0 -0 -0.3601 -0.878 4.2331 -3.97569e-016 7.95139e-016 -0 -1.8127 -1.216 2.2227 -7.95139e-016 3.97569e-016 -0 -0.9571 1.114 1.7695 0 3.97569e-016 -0 -4.1246 0.487 4.1451 7.95139e-016 1.19271e-015 1.27222e-014 -3.4052 -1.454 2.7682 -7.95139e-016 0 -6.36111e-015 -1.4531 -1.795 1.2713 -7.95139e-016 3.97569e-016 -3.18055e-015 -5.6954 0.21 2.1184 7.95139e-016 1.19271e-015 1.27222e-014 -3.9766 -1.54 2.3863 -7.95139e-016 0 -6.36111e-015 -1.4042 -1.926 1.125 -7.95139e-016 3.97569e-016 -3.18055e-015 -2.0956 0.66 -0.3894 0 3.97569e-016 -0 -5.0395 -0.09 2.4971 7.95139e-016 1.19271e-015 1.27222e-014 -3.7921 -1.552 1.4806 -7.95139e-016 0 -6.36111e-015 -1.4655 -1.808 0.9609 -7.95139e-016 3.97569e-016 -3.18055e-015 -4.9141 -1.269 0.3592 7.95139e-016 1.19271e-015 1.27222e-014 -3.1477 -1.685 0.8462 -7.95139e-016 0 -6.36111e-015 -0.8055 -1.585 0.7955 -7.95139e-016 3.97569e-016 -3.18055e-015 8.367 -8.2066 0.5982 12.5568 -37.8638 72.2134 2.1923 -43.463 -0.4932 7.4548 16.7615 -1.87406 0.7333 -45.8593 -2.6451 2.40397 8.9435 -32.9948 -8.367 -8.2066 0.5982 -0.657003 -40.3011 -21.9004 -2.1923 -43.463 -0.4931 -9.28743 15.4831 1.5159 -0.7333 -45.8593 -2.6451 10.4005 5.40672 2.76692 
42.3318 88.3513 29.9255 0 18.9975 -0 0 -1.186 -1.5018 -0.235892 -0.240665 -0.200106 7.10543e-015 9.964 0.2134 -0.472629 -0.480506 -0.401207 -7.10543e-015 13.134 -3.2573 -0.472629 -0.480501 -0.401207 -7.10543e-015 20.686 -1.6905 -7.98562e-005 -26.0022 -5.40387e-005 0 7.238 -0.1237 -3.62922e-008 17.9984 -1.10966e-007 1.7069 20.075 5.0056 9.72971 16.8162 3.64945 13.6458 -0.047 -4.849 -75.1695 -1.95807 7.12061 28.3255 -0.9759 2.2888 -33.8449 9.73653 21.9893 22.1583 -0.53 10.8316 9.13803 2.26783 -26.1479 0.786 0.112 2.5817 -5.96354e-016 1.59028e-015 -6.36111e-015 0.3601 -0.878 4.2331 7.95139e-016 5.96354e-016 -0 1.8127 -1.216 2.2227 9.93923e-016 2.98177e-015 -3.18055e-015 0.9571 1.114 1.7695 -5.96354e-016 5.96354e-016 -6.36111e-015 4.1246 0.487 4.1451 -9.93923e-016 3.97569e-016 9.54166e-015 3.4052 -1.454 2.7682 -5.96354e-016 2.18663e-015 -3.18055e-015 1.4531 -1.795 1.2713 -5.96354e-016 2.38542e-015 -0 5.6954 0.21 2.1184 -9.93923e-016 3.97569e-016 9.54166e-015 3.9766 -1.54 2.3863 -5.96354e-016 2.18663e-015 -3.18055e-015 1.4042 -1.926 1.125 -5.96354e-016 2.38542e-015 -0 2.0956 0.66 -0.3894 -5.96354e-016 5.96354e-016 -6.36111e-015 5.0395 -0.09 2.4971 -9.93923e-016 3.97569e-016 9.54166e-015 3.7921 -1.552 1.4806 -5.96354e-016 2.18663e-015 -3.18055e-015 1.4655 -1.808 0.9609 -5.96354e-016 2.38542e-015 -0 4.9141 -1.269 0.3591 -9.93923e-016 3.97569e-016 9.54166e-015 3.1477 -1.685 0.8462 -5.96354e-016 2.18663e-015 -3.18055e-015 0.8055 -1.585 0.7955 -5.96354e-016 2.38542e-015 -0 -1.7069 20.075 5.0056 -0.991948 17.8577 -7.95422 -13.6458 -0.047 -4.849 74.5954 -2.0044 -7.60772 -28.3255 -0.9759 2.2888 17.3486 5.84424 -21.476 -22.1583 -0.53 10.8316 -0.799355 5.63792 22.2467 -0.786 0.112 2.5817 7.95139e-016 3.97569e-016 -3.18055e-015 -0.3601 -0.878 4.2331 3.97569e-016 7.95139e-016 -3.18055e-015 -1.8127 -1.216 2.2227 -3.97569e-016 1.19271e-015 3.18055e-015 -0.9571 1.114 1.7695 3.97569e-016 3.97569e-016 -3.18055e-015 -4.1246 0.487 4.1451 1.98785e-015 7.95139e-016 1.59028e-014 -3.4052 -1.454 2.7682 3.97569e-016 3.97569e-016 3.18055e-015 -1.4531 -1.795 1.2713 3.97569e-016 3.97569e-016 -3.18055e-015 -5.6954 0.21 2.1184 1.98785e-015 7.95139e-016 1.59028e-014 -3.9766 -1.54 2.3863 3.97569e-016 3.97569e-016 3.18055e-015 -1.4042 -1.926 1.125 3.97569e-016 3.97569e-016 -3.18055e-015 -2.0956 0.66 -0.3894 3.97569e-016 3.97569e-016 -3.18055e-015 -5.0395 -0.09 2.4971 1.98785e-015 7.95139e-016 1.59028e-014 -3.7921 -1.552 1.4806 3.97569e-016 3.97569e-016 3.18055e-015 -1.4655 -1.808 0.9609 3.97569e-016 3.97569e-016 -3.18055e-015 -4.9141 -1.269 0.3592 1.98785e-015 7.95139e-016 1.59028e-014 -3.1477 -1.685 0.8462 3.97569e-016 3.97569e-016 3.18055e-015 -0.8055 -1.585 0.7955 3.97569e-016 3.97569e-016 -3.18055e-015 8.367 -8.2066 0.5982 12.3376 -37.5536 72.218 2.1923 -43.463 -0.4932 7.168 16.2992 -1.78576 0.7333 -45.8593 -2.6451 2.56938 9.15294 -33.1796 -8.367 -8.2066 0.5982 -0.291841 -39.8819 -20.496 -2.1923 -43.463 -0.4931 -9.10933 14.9484 1.44747 -0.7333 -45.8593 -2.6451 10.5858 5.48895 1.53722 
